<mxfile host="app.diagrams.net" modified="2024-07-15T08:36:51.726Z" agent="Mozilla/5.0 (Windows NT 10.0; Win64; x64) AppleWebKit/537.36 (KHTML, like Gecko) Chrome/126.0.0.0 Safari/537.36" version="24.6.5" etag="xUKUQ6rxdNGdoD-kKVLJ" type="github">
  <diagram name="PÃ¡gina-1" id="m2EbJU5aaNKwkjfqavtj">
    <mxGraphModel>
      <root>
        <mxCell id="0" />
        <mxCell id="1" parent="0" />
      </root>
    </mxGraphModel>
  </diagram>
</mxfile>
